<!-- Generator: Adobe Illustrator 21.1.0, SVG Export Plug-In  -->
<svg version="1.1"
	 xmlns="http://www.w3.org/2000/svg" xmlns:xlink="http://www.w3.org/1999/xlink" xmlns:a="http://ns.adobe.com/AdobeSVGViewerExtensions/3.0/"
	 x="0px" y="0px" width="20.4px" height="23px" viewBox="0 0 20.4 23" style="enable-background:new 0 0 20.4 23;"
	 xml:space="preserve">
<style type="text/css">
	.st0{fill:#54D6F0;}
</style>
<defs>
</defs>
<g id="XMLID_1_">
	<path id="XMLID_4_" class="st0" d="M13.8,0c-0.4,0-0.7,0.3-0.7,0.7v4.8c-0.3,0-0.7-0.1-1.1-0.1V0.7C12,0.3,11.7,0,11.3,0
		c-0.4,0-0.7,0.3-0.7,0.7v4.7c-0.4,0-0.8,0.1-1.1,0.1V0.7C9.5,0.3,9.2,0,8.8,0C8.4,0,8.1,0.3,8.1,0.7v5.2c0,0,0,0.1,0,0.1
		c0,0,0,0.1,0,0.1v1.4c0,1,0.8,1.8,1.8,1.8h0.5v12.6c0,0.6,0.5,1.1,1.1,1.1c0.6,0,1.1-0.5,1.1-1.1V9.3h0.2c1,0,1.8-0.8,1.8-1.8V6.2
		c0,0,0,0,0-0.1c0-0.1,0-0.1,0-0.2V0.7C14.5,0.3,14.2,0,13.8,0z"/>
	<path id="XMLID_3_" class="st0" d="M18.6,0c-1,0-1.8,0.8-1.8,1.8v8.7c0,0.1,0,0.3,0,0.4v10.9c0,0.6,0.5,1.1,1.1,1.1
		c0.6,0,1.1-0.5,1.1-1.1v-9.6c0.8-0.2,1.4-0.9,1.4-1.8V1.8C20.4,0.8,19.6,0,18.6,0z"/>
	<path id="XMLID_2_" class="st0" d="M6.8,5.3C6.8,2.4,4.9,0,3.4,0C2,0,0,2.4,0,5.3c0,2.4,0.7,3.9,2.4,4.3c0,0.1,0,0.2,0,0.3v12
		c0,0.6,0.5,1.1,1.1,1.1c0.6,0,1.2-0.5,1.2-1.1v-12c0-0.1,0-0.2,0-0.3C6.3,9.1,6.8,7.7,6.8,5.3z"/>
</g>
</svg>
