<!-- Generator: Adobe Illustrator 21.1.0, SVG Export Plug-In  -->
<svg version="1.1"
	 xmlns="http://www.w3.org/2000/svg" xmlns:xlink="http://www.w3.org/1999/xlink" xmlns:a="http://ns.adobe.com/AdobeSVGViewerExtensions/3.0/"
	 x="0px" y="0px" width="9.8px" height="15px" viewBox="0 0 9.8 15" style="enable-background:new 0 0 9.8 15;"
	 xml:space="preserve">
<style type="text/css">
	.st0{fill:#D6D9DE;}
</style>
<defs>
</defs>
<g id="XMLID_1_">
	<g id="XMLID_3_">
		<path id="XMLID_4_" class="st0" d="M4.4,15v-1.1C1.7,13.7,0,12.4,0,10.3h2.5c0.1,0.9,0.8,1.6,1.9,1.7V8.6L3.5,8.4
			C1.4,7.9,0.3,6.7,0.3,4.9c0-2.1,1.5-3.5,4.1-3.7V0h1.2v1.2c2.4,0.2,4,1.6,4,3.6H7.2c0-0.8-0.7-1.5-1.6-1.6v3.2l0.9,0.2
			c2.2,0.5,3.3,1.6,3.3,3.5c0,2.2-1.5,3.6-4.2,3.8V15H4.4z M4.4,6.2v-3C3.4,3.2,2.8,3.8,2.8,4.7C2.8,5.4,3.3,5.9,4.4,6.2z M5.6,8.8
			v3.2c1.1-0.1,1.8-0.7,1.8-1.6C7.4,9.5,6.8,9,5.6,8.8z"/>
	</g>
</g>
</svg>
