<!-- Generator: Adobe Illustrator 21.1.0, SVG Export Plug-In  -->
<svg version="1.1"
	 xmlns="http://www.w3.org/2000/svg" xmlns:xlink="http://www.w3.org/1999/xlink" xmlns:a="http://ns.adobe.com/AdobeSVGViewerExtensions/3.0/"
	 x="0px" y="0px" width="25px" height="25px" viewBox="0 0 25 25" style="enable-background:new 0 0 25 25;" xml:space="preserve">
<style type="text/css">
	.st0{fill:#54D6F0;}
</style>
<defs>
</defs>
<path id="XMLID_1_" class="st0" d="M0,4.1c0.1-0.3,0.1-0.6,0.3-0.9C0.3,3,0.4,2.8,0.6,2.6C1.3,1.8,2,1.1,2.9,0.5
	c0.9-0.6,1.9-0.6,2.8,0c0.9,0.6,1.5,1.4,2,2.2c0.3,0.5,0.6,0.9,0.8,1.5C8.9,5.2,8.7,6,8,6.8c-0.3,0.4-0.6,0.7-1,1
	C6.6,8.2,6.5,8.7,6.7,9.2c0.2,0.8,0.7,1.4,1.2,2.1c1.2,1.7,2.7,3.1,4.2,4.5c1,0.9,1.9,1.7,3.1,2.3c0.2,0.1,0.4,0.2,0.6,0.2
	c0.7,0.2,1.2,0.1,1.7-0.5c0.4-0.4,0.8-0.8,1.3-1.2c0.7-0.4,1.4-0.5,2.2-0.2c1,0.4,1.9,1,2.7,1.7c0.4,0.3,0.7,0.6,0.9,1
	c0.7,1.1,0.7,2,0,3c-0.6,0.8-1.3,1.5-2.1,2.2C21.7,25,20.8,25,19.9,25c-2.3-0.2-4.4-1.1-6.4-2.3c-2.5-1.5-4.8-3.4-6.8-5.5
	c-1.6-1.7-3.1-3.6-4.3-5.6C1.2,9.6,0.3,7.6,0,5.4c0,0,0-0.1,0-0.1C0,4.8,0,4.4,0,4.1z"/>
</svg>
