<!-- Generator: Adobe Illustrator 21.1.0, SVG Export Plug-In  -->
<svg version="1.1"
	 xmlns="http://www.w3.org/2000/svg" xmlns:xlink="http://www.w3.org/1999/xlink" xmlns:a="http://ns.adobe.com/AdobeSVGViewerExtensions/3.0/"
	 x="0px" y="0px" width="33px" height="20.2px" viewBox="0 0 33 20.2" style="enable-background:new 0 0 33 20.2;"
	 xml:space="preserve">
<style type="text/css">
	.st0{fill:#D6D9DE;}
</style>
<defs>
</defs>
<g id="XMLID_1_">
	<g id="XMLID_2_">
		<path id="XMLID_3_" class="st0" d="M2.2,20.2C1,20.2,0,19.2,0,18V5.5c0-1.2,1-2.2,2.2-2.2h3.1v-1C5.4,1,6.4,0,7.6,0h23.2
			c0.6,0,1.2,0.2,1.6,0.7c0.4,0.4,0.7,1,0.7,1.6v12.5c0,1.2-1,2.2-2.2,2.2h-3.1v1c0,1.2-1,2.2-2.2,2.2H2.2z M27.6,15.8h3.1
			c0.6,0,1.1-0.5,1.1-1.1v-1.3h-4.2V15.8z M27.6,12.3h4.2V9.8h-4.2V12.3z M7.6,1.2C7,1.2,6.5,1.7,6.5,2.2v1h18.9
			c1.2,0,2.2,1,2.2,2.2v3.2h4.2l0-6.4c0-0.6-0.5-1.1-1.1-1.1H7.6z"/>
	</g>
</g>
</svg>
