<!-- Generator: Adobe Illustrator 21.1.0, SVG Export Plug-In  -->
<svg version="1.1"
	 xmlns="http://www.w3.org/2000/svg" xmlns:xlink="http://www.w3.org/1999/xlink" xmlns:a="http://ns.adobe.com/AdobeSVGViewerExtensions/3.0/"
	 x="0px" y="0px" width="23px" height="23px" viewBox="0 0 23 23" style="enable-background:new 0 0 23 23;" xml:space="preserve">
<style type="text/css">
	.st0{fill:#D6D9DE;}
</style>
<defs>
</defs>
<path id="XMLID_1_" class="st0" d="M22,11.6V8.4c0-1.1-0.9-2-1.9-2.1L17,1c-0.3-0.5-0.7-0.8-1.3-1c-0.5-0.1-1.1-0.1-1.6,0.2l-10.3,6
	H2.1C0.9,6.3,0,7.2,0,8.4v12.5C0,22.1,0.9,23,2.1,23h17.8c1.2,0,2.1-0.9,2.1-2.1v-3.2c0.6-0.2,1-0.8,1-1.5v-3.1
	C23,12.4,22.6,11.8,22,11.6z M18.8,6.3h-4.6l3.4-2L18.8,6.3z M17.2,3.4l-5,2.9h-2.1l6.5-3.8L17.2,3.4z M14.7,1.2
	C15,1,15.2,1,15.5,1.1c0.3,0.1,0.5,0.2,0.6,0.5l0,0L8,6.3H6L14.7,1.2z M22,16.2c0,0.3-0.2,0.5-0.5,0.5h-3.7c-1.2,0-2.1-0.9-2.1-2.1
	c0-1.2,0.9-2.1,2.1-2.1h3.7c0.3,0,0.5,0.2,0.5,0.5V16.2z"/>
</svg>
