<!-- Generator: Adobe Illustrator 21.1.0, SVG Export Plug-In  -->
<svg version="1.1"
	 xmlns="http://www.w3.org/2000/svg" xmlns:xlink="http://www.w3.org/1999/xlink" xmlns:a="http://ns.adobe.com/AdobeSVGViewerExtensions/3.0/"
	 x="0px" y="0px" width="19px" height="19px" viewBox="0 0 19 19" style="enable-background:new 0 0 19 19;" xml:space="preserve">
<style type="text/css">
	.st0{fill:#D6D9DE;}
</style>
<defs>
</defs>
<g id="XMLID_1_">
	<g id="XMLID_2_">
		<path id="XMLID_4_" class="st0" d="M18.3,5.8c-1-2.3-2.7-4-5.1-5C12,0.3,10.8,0,9.5,0C8.2,0,7,0.3,5.8,0.8c-2.3,1-4,2.7-5.1,5
			C0.2,7,0,8.2,0,9.5c0,1.3,0.2,2.5,0.7,3.7c1,2.3,2.7,4,5.1,5.1C7,18.7,8.2,19,9.5,19s2.5-0.3,3.7-0.8c2.4-1,4.1-2.7,5.1-5.1
			C18.8,12,19,10.8,19,9.5C19,8.2,18.8,7,18.3,5.8z M16.7,13.7C16,15,15,16,13.7,16.7c-1.3,0.7-2.7,1.1-4.2,1.1
			c-1.1,0-2.2-0.2-3.2-0.7c-1-0.4-1.9-1-2.7-1.8c-0.7-0.7-1.3-1.6-1.8-2.7c-0.4-1-0.7-2.1-0.7-3.3c0-1.5,0.4-2.9,1.1-4.2
			C3,4,4,3,5.3,2.3C6.6,1.5,8,1.1,9.5,1.1c1.5,0,2.9,0.4,4.2,1.1C15,3,16,4,16.7,5.3c0.7,1.3,1.1,2.7,1.1,4.2
			C17.9,11,17.5,12.4,16.7,13.7z"/>
		<path id="XMLID_3_" class="st0" d="M10.1,9.4V4c0-0.3-0.3-0.6-0.6-0.6C9.2,3.4,8.9,3.7,8.9,4v5.5c0,0,0,0.1,0,0.1
			c0,0.2,0,0.3,0.2,0.5l3.1,3.1c0.2,0.2,0.6,0.2,0.8,0c0.2-0.2,0.2-0.6,0-0.8L10.1,9.4z"/>
	</g>
</g>
</svg>
