<!-- Generator: Adobe Illustrator 21.1.0, SVG Export Plug-In  -->
<svg version="1.1"
	 xmlns="http://www.w3.org/2000/svg" xmlns:xlink="http://www.w3.org/1999/xlink" xmlns:a="http://ns.adobe.com/AdobeSVGViewerExtensions/3.0/"
	 x="0px" y="0px" width="28.9px" height="23px" viewBox="0 0 28.9 23" style="enable-background:new 0 0 28.9 23;"
	 xml:space="preserve">
<style type="text/css">
	.st0{fill-rule:evenodd;clip-rule:evenodd;fill:#D6D9DE;}
</style>
<defs>
</defs>
<path id="XMLID_1_" class="st0" d="M0.9,0c3.9,0,7.8,0,11.7,0c0.6,0,0.5-0.1,0.5,0.4c0,0.5,0,0.4-0.5,0.6c-0.1,0.1-0.3,0.2-0.4,0.2
	c-0.1,0.1-0.1,0.1-0.1,0.2c0,1.8,0,3.7,0,5.5c0,0.1-0.1,0.3-0.3,0.3c-3.3,0-6.7,0-10,0C1.6,7.3,1.5,7.2,1.5,7c0-1.8,0-3.7,0-5.5
	c0-0.1,0-0.2-0.1-0.2C1.2,1.2,1.1,1.2,0.9,1.1C0.5,0.8,0.5,0.9,0.5,0.4C0.5-0.1,0.4,0,0.9,0L0.9,0z M23.8,17.1
	c1.6,0,2.9,1.3,2.9,2.9c0,1.6-1.3,2.9-2.9,2.9c-1.6,0-2.9-1.3-2.9-2.9C20.9,18.4,22.2,17.1,23.8,17.1L23.8,17.1z M4.9,17.1
	c1.6,0,2.9,1.3,2.9,2.9c0,1.6-1.3,2.9-2.9,2.9C3.3,23,2,21.7,2,20.1C2,18.4,3.3,17.1,4.9,17.1L4.9,17.1z M0.3,8.7
	c4.4,0,8.9,0,13.3,0c1.8,0,1.9-0.4,1.1,1.2c-0.8,1.7-3.8,2.9-1.9,5.9c0,0.1,0.1,0.1,0.2,0.1c2.2,0,4.4,0,6.6,0
	c0.1,0,0.2-0.1,0.2-0.2C20,13.4,20,11,19.7,8.6c-0.2-1.2-0.4-2.3-0.6-3.5c0-0.1-0.1-0.2-0.2-0.2c-0.4,0-0.7,0-1.1,0
	c-0.1,0-0.2-0.1-0.2-0.2c0-0.4,0-0.8,0-1.2c0-0.1,0.1-0.2,0.2-0.2c1.7,0,3.5,0,5.2,0c0.1,0,0.2,0.1,0.2,0.2
	c-0.2,0.9-0.4,1.7-0.6,2.6c-0.3,1.3-0.4,0.9,0.7,1.3c3.9,1.4,5.9,5.6,5.6,10.2c0,0.1-0.1,0.2-0.3,0.2c-0.5,0-0.9,0-1.4,0
	c-0.1,0-0.2-0.1-0.2-0.2c-1.2-2.8-5.2-2.8-6.3,0c0,0.1-0.1,0.2-0.3,0.2c-3.9,0-7.5,0-11.4,0c-0.9,0-0.8,0.1-1.2-0.6
	c-1.3-2.3-4.8-2.2-6,0.2c-0.4,0.7-0.7,0.5-0.6-0.2c0.6-2.6,1.2-4.5,3.2-6.5c0.4-0.4,0.5-0.4-0.1-0.4c-1.4,0-2.7,0-4.1,0
	c-0.1,0-0.3-0.1-0.3-0.3C0,9.8,0,9.4,0,9C0,8.8,0.1,8.7,0.3,8.7L0.3,8.7z"/>
</svg>
