<!-- Generator: Adobe Illustrator 21.1.0, SVG Export Plug-In  -->
<svg version="1.1"
	 xmlns="http://www.w3.org/2000/svg" xmlns:xlink="http://www.w3.org/1999/xlink" xmlns:a="http://ns.adobe.com/AdobeSVGViewerExtensions/3.0/"
	 x="0px" y="0px" width="34px" height="20.5px" viewBox="0 0 34 20.5" style="enable-background:new 0 0 34 20.5;"
	 xml:space="preserve">
<style type="text/css">
	.st0{fill-rule:evenodd;clip-rule:evenodd;fill:#D6D9DE;}
</style>
<defs>
</defs>
<g>
	<path id="XMLID_6_" class="st0" d="M33.3,0c-2.6,0-8,0-9.1,0c-0.1,0-0.2,0.1-0.2,0.2V8h0.7V1c0-0.1,0.1-0.2,0.2-0.2h8
		c0.6,0,0.5-0.1,0.5,0.4v9.6c0,0.2-0.1,0.3-0.3,0.3h-8.6c-0.2,0-0.3,0.1-0.3,0.3v8.8c0,0.2,0.1,0.3,0.3,0.3h9.3
		c0.2,0,0.3-0.1,0.3-0.3c0-6.6,0-13.1,0-19.7C34-0.1,34,0,33.3,0z"/>
	<path id="XMLID_1_" class="st0" d="M21.6,9.9c-1.1,0-1.4,0.3-2.2,0.8c-0.5,0.3-0.3,0.4-0.5-0.2c-0.4-1.1-0.7-2.3-1.1-3.4
		c-0.7-2.3-0.8-2.4-3.2-2.4c-2.9,0-4.5,0-7.4,0c-2.4,0-2.5,0.1-3.2,2.4C3.7,8.2,3.4,9.3,3,10.5c-0.2,0.6-0.1,0.5-0.5,0.2
		c-0.8-0.5-1.1-0.7-2.2-0.8C0.1,9.9,0,10.1,0,10.2c0,0.5,0.1,0.9,0.1,1.4c0,0.1,0.1,0.3,0.3,0.3c0.8,0,0.9,0,1.7,0
		c0.6,0,0.6-0.1,0.2,0.4c-0.2,0.3-0.4,0.6-0.7,0.9c0,0.1-0.1,0.1-0.1,0.2c0,1.1,0,2.2,0,3.3c0,0.1,0,0.2,0.1,0.2
		C2,17,2.2,17.2,2.5,17.4c0.2,0.1,0.2,0.1,0.2,0.4c0,0.8,0,1.7,0,2.5c0,0.2,0.1,0.3,0.3,0.3c0.9,0,1.8,0,2.7,0
		c0.2,0,0.3-0.1,0.3-0.3c0-0.8,0-1.6,0-2.5c0-0.2,0.1-0.3,0.3-0.3c3.6,0,5.8,0,9.4,0c0.2,0,0.3,0.1,0.3,0.3c0,0.8,0,1.6,0,2.5
		c0,0.2,0.1,0.3,0.3,0.3c0.9,0,1.8,0,2.7,0c0.2,0,0.3-0.1,0.3-0.3c0-0.8,0-1.7,0-2.5c0-0.3,0-0.2,0.2-0.4c0.3-0.2,0.6-0.4,0.8-0.6
		c0.1-0.1,0.1-0.1,0.1-0.2c0-1.1,0-2.2,0-3.3c0-0.1,0-0.1-0.1-0.2c-0.2-0.3-0.5-0.6-0.7-0.9c-0.3-0.4-0.4-0.3,0.1-0.3
		c0.8,0,1,0,1.8,0c0.1,0,0.3-0.1,0.3-0.3c0-0.5,0.1-0.9,0.1-1.4C21.9,10.1,21.8,9.9,21.6,9.9z M3.8,10.8c0.4-1.2,0.7-2.3,1.1-3.5
		c0.6-1.9,0.4-1.8,2.4-1.8c2.9,0,4.5,0,7.4,0c1.9,0,1.8-0.1,2.4,1.8c0.3,1.1,0.7,2.3,1,3.4c0.2,0.6,0.3,0.5-0.3,0.5
		c-5,0-8.7,0-13.8,0C3.6,11.2,3.7,11.2,3.8,10.8z M6.6,16c0,0.1-0.1,0.1-0.1,0.1c-1.3,0-2.5,0-3.8,0c-0.1,0-0.1-0.1-0.1-0.1
		c0-0.5,0-1,0-1.5c0-0.1,0.1-0.1,0.1-0.1c1.3,0,2.5,0,3.8,0c0.1,0,0.1,0.1,0.1,0.1C6.6,15,6.6,15.5,6.6,16z M19.3,14.5
		c0,0.5,0,1,0,1.5c0,0.1-0.1,0.1-0.1,0.1c-1.3,0-2.5,0-3.8,0c-0.1,0-0.1-0.1-0.1-0.1c0-0.5,0-1,0-1.5c0-0.1,0.1-0.1,0.1-0.1
		c1.3,0,2.5,0,3.8,0C19.3,14.4,19.3,14.4,19.3,14.5z"/>
</g>
</svg>
