<!-- Generator: Adobe Illustrator 21.1.0, SVG Export Plug-In  -->
<svg version="1.1"
	 xmlns="http://www.w3.org/2000/svg" xmlns:xlink="http://www.w3.org/1999/xlink" xmlns:a="http://ns.adobe.com/AdobeSVGViewerExtensions/3.0/"
	 x="0px" y="0px" width="36.3px" height="32.6px" viewBox="0 0 36.3 32.6" style="enable-background:new 0 0 36.3 32.6;"
	 xml:space="preserve">
<style type="text/css">
	.st0{fill:#D6D9DE;}
</style>
<defs>
</defs>
<g id="XMLID_1_">
	<g id="XMLID_2_">
		<path class="st0" d="M18,32.6l-15-15c-1.9-1.9-3-4.5-3-7.3c0-3.2,1.5-6.2,4-8.2c1.4-1.1,3.1-1.8,4.9-2c3.3-0.4,6.4,0.6,8.7,2.9
			l0.5,0.5l0.5-0.5c2.3-2.3,5.5-3.4,8.7-2.9c1.8,0.2,3.4,0.9,4.8,2c2.7,2.1,4.2,5.2,4.1,8.5c-0.1,2.6-1.2,5.2-3.2,7.2L18,32.6z
			 M10.3,3c-0.3,0-0.7,0-1,0.1C8,3.2,6.9,3.7,5.9,4.5C4,5.9,3,8,3,10.3c0,2,0.8,3.8,2.2,5.2L18,28.4l13-12.7
			c1.4-1.4,2.3-3.3,2.3-5.1c0.1-2.4-1-4.6-2.9-6.1c-1-0.8-2.2-1.3-3.4-1.4c-2.3-0.3-4.6,0.5-6.2,2.1l-2.7,2.7l-2.7-2.7
			C14.1,3.8,12.2,3,10.3,3z"/>
	</g>
</g>
</svg>
