<!-- Generator: Adobe Illustrator 21.1.0, SVG Export Plug-In  -->
<svg version="1.1"
	 xmlns="http://www.w3.org/2000/svg" xmlns:xlink="http://www.w3.org/1999/xlink" xmlns:a="http://ns.adobe.com/AdobeSVGViewerExtensions/3.0/"
	 x="0px" y="0px" width="18.5px" height="18.5px" viewBox="0 0 18.5 18.5" style="enable-background:new 0 0 18.5 18.5;"
	 xml:space="preserve">
<style type="text/css">
	.st0{fill:#D6D9DE;}
</style>
<defs>
</defs>
<g id="XMLID_1_">
	<g id="XMLID_3_">
		<g id="XMLID_4_">
			<path class="st0" d="M8.2,4.2c0-0.5,0.4-1,1-1c0.6,0,1,0.4,1,1c0,0.5-0.4,1-1,1C8.6,5.2,8.2,4.8,8.2,4.2z M8.4,6.6H10v8H8.4V6.6z
				"/>
		</g>
	</g>
	<g id="XMLID_2_">
		<path class="st0" d="M9.3,18.5C4.1,18.5,0,14.4,0,9.3S4.1,0,9.3,0s9.3,4.1,9.3,9.3S14.4,18.5,9.3,18.5z M9.3,1.5
			C5,1.5,1.5,5,1.5,9.3S5,17,9.3,17S17,13.5,17,9.3S13.5,1.5,9.3,1.5z"/>
	</g>
</g>
</svg>
