<!-- Generator: Adobe Illustrator 21.1.0, SVG Export Plug-In  -->
<svg version="1.1"
	 xmlns="http://www.w3.org/2000/svg" xmlns:xlink="http://www.w3.org/1999/xlink" xmlns:a="http://ns.adobe.com/AdobeSVGViewerExtensions/3.0/"
	 x="0px" y="0px" width="27px" height="27px" viewBox="0 0 27 27" style="overflow:scroll;enable-background:new 0 0 27 27;"
	 xml:space="preserve">
<style type="text/css">
	.st0{fill:#54D6F0;}
</style>
<defs>
</defs>
<g id="XMLID_1_">
	<g>
		<path class="st0" d="M13.5,27C6.1,27,0,20.9,0,13.5S6.1,0,13.5,0S27,6.1,27,13.5S20.9,27,13.5,27z M13.5,2C7.2,2,2,7.2,2,13.5
			S7.2,25,13.5,25S25,19.8,25,13.5S19.8,2,13.5,2z"/>
	</g>
	<g id="XMLID_2_">
		<path class="st0" d="M12.4,20.3v-8h-1.3v-1.9h3.6v9.9H12.4z M13.6,6.5c0.4,0,0.7,0.1,1,0.4c0.3,0.3,0.4,0.6,0.4,1s-0.1,0.7-0.4,1
			c-0.3,0.3-0.6,0.4-1,0.4s-0.7-0.1-1-0.4c-0.3-0.3-0.4-0.6-0.4-1s0.1-0.7,0.4-1C13,6.6,13.3,6.5,13.6,6.5z"/>
	</g>
</g>
</svg>
