<!-- Generator: Adobe Illustrator 21.1.0, SVG Export Plug-In  -->
<svg version="1.1"
	 xmlns="http://www.w3.org/2000/svg" xmlns:xlink="http://www.w3.org/1999/xlink" xmlns:a="http://ns.adobe.com/AdobeSVGViewerExtensions/3.0/"
	 x="0px" y="0px" width="37.2px" height="35px" viewBox="0 0 37.2 35" style="enable-background:new 0 0 37.2 35;"
	 xml:space="preserve">
<style type="text/css">
	.st0{fill:#D6D9DE;}
</style>
<defs>
</defs>
<g id="XMLID_1_">
	<g id="XMLID_5_">
		<path class="st0" d="M10.5,23H7.1l-0.2-0.1C2.8,21.8,0,18.1,0,13.9c0-5.4,4.5-9.4,10.5-9.4v3C6.2,7.5,3,10.2,3,13.9
			c0,2.8,1.8,5.3,4.5,6.1h3V23z"/>
	</g>
	<g id="XMLID_4_">
		<path class="st0" d="M31.4,35H5.8V21.5h3V32h19.5V19l1.5,0c1.3,0,2.2-0.6,2.7-1.1c1-1,1.6-2.4,1.6-4c0-2.1-0.7-3.9-2.1-4.9
			c-1.3-1-3.2-1.2-5.2-0.6l-1.4,0.4L25,7.4c-1-3-3.1-4.4-6.4-4.4c-2.7,0-5.3,1.4-6.7,3.7c-1.5,3.2-1.3,5.9,0.6,8.1l-2.3,1.9
			c-2.7-3.2-3-7.2-1-11.5l0.1-0.1c2-3.2,5.5-5.2,9.3-5.2c4,0,7.1,1.8,8.7,5.2c2.5-0.4,4.8,0.1,6.6,1.4c2.1,1.6,3.3,4.2,3.3,7.3
			c0,2.4-0.9,4.6-2.5,6.2c-0.9,0.9-2.1,1.5-3.3,1.8V35z"/>
	</g>
	<g id="XMLID_2_">
		<rect x="16.8" y="26.9" class="st0" width="13" height="3"/>
	</g>
</g>
</svg>
