<!-- Generator: Adobe Illustrator 21.1.0, SVG Export Plug-In  -->
<svg version="1.1"
	 xmlns="http://www.w3.org/2000/svg" xmlns:xlink="http://www.w3.org/1999/xlink" xmlns:a="http://ns.adobe.com/AdobeSVGViewerExtensions/3.0/"
	 x="0px" y="0px" width="19.1px" height="18px" viewBox="0 0 19.1 18" style="enable-background:new 0 0 19.1 18;"
	 xml:space="preserve">
<style type="text/css">
	.st0{fill:#D6D9DE;}
</style>
<defs>
</defs>
<g id="XMLID_1_">
	<g id="XMLID_2_">
		<path class="st0" d="M16.1,18h-13v-6.5C1.2,10.8,0,9.1,0,7.1c0-2.6,2.1-4.7,4.7-4.7H5C6.1,0.9,7.7,0,9.6,0c1.8,0,3.5,0.9,4.5,2.3
			l0.2-0.1v0.2h0.1c2.6,0,4.7,2.1,4.7,4.7c0,1.2-0.4,2.3-1.2,3.1c-0.5,0.5-1.2,0.8-1.9,0.9V18z M4.6,16.5h9.9v-0.9H7v-1.5h1.3v-2.5
			h1.5v2.5h0.9v-2.5h1.5v2.5h2.3v-2.3c0,0-0.1,0-0.1,0h-0.5v-1.5h0.5c0.2,0,0.4,0,0.6-0.1v-0.1l0.4,0c1.3-0.4,2.2-1.6,2.2-3
			c0-1.8-1.4-3.2-3.2-3.2h-1.1l-0.1,0.1L13,3.5c-0.7-1.2-2-2-3.5-2c-2.2,0-4,1.8-4,4c0,0.7,0.2,1.4,0.5,2l0.2,0.4L5,8.7L4.8,8.3
			C4.3,7.4,4,6.5,4,5.5c0-0.4,0-0.8,0.1-1.1l0.1-0.5C2.7,4.1,1.5,5.5,1.5,7.1c0,1.8,1.4,3.2,3.2,3.2h0.5v1.5H4.7c0,0-0.1,0-0.1,0
			V16.5z"/>
	</g>
</g>
</svg>
