<!-- Generator: Adobe Illustrator 21.1.0, SVG Export Plug-In  -->
<svg version="1.1"
	 xmlns="http://www.w3.org/2000/svg" xmlns:xlink="http://www.w3.org/1999/xlink" xmlns:a="http://ns.adobe.com/AdobeSVGViewerExtensions/3.0/"
	 x="0px" y="0px" width="104.8px" height="32.3px" viewBox="0 0 104.8 32.3" style="enable-background:new 0 0 104.8 32.3;"
	 xml:space="preserve">
<style type="text/css">
	.st0{fill:#CACCD1;}
</style>
<defs>
</defs>
<g id="XMLID_1_">
	<path id="XMLID_10_" class="st0" d="M20.5,23.2c0,2.8-1,5.1-3.1,6.7c-2,1.6-4.9,2.4-8.5,2.4c-3.3,0-6.3-0.6-8.9-1.9v-6.2
		c2.1,0.9,3.9,1.6,5.4,2s2.8,0.6,4,0.6c1.5,0,2.6-0.3,3.4-0.8c0.8-0.6,1.2-1.4,1.2-2.5c0-0.6-0.2-1.2-0.5-1.6
		c-0.3-0.5-0.8-0.9-1.5-1.4c-0.7-0.4-2-1.2-4.1-2.1c-1.9-0.9-3.4-1.8-4.3-2.6c-1-0.8-1.7-1.8-2.3-2.9C0.7,11.7,0.4,10.4,0.4,9
		c0-2.8,0.9-5,2.8-6.5C5.1,0.8,7.7,0,11,0c1.6,0,3.2,0.2,4.7,0.6c1.5,0.4,3,0.9,4.6,1.6l-2.1,5.2C16.5,6.7,15.1,6.3,14,6
		c-1.1-0.3-2.2-0.4-3.2-0.4c-1.3,0-2.2,0.3-2.9,0.9c-0.7,0.6-1,1.4-1,2.3c0,0.6,0.1,1.1,0.4,1.5s0.7,0.9,1.3,1.3
		c0.6,0.4,2,1.1,4.2,2.2c2.9,1.4,4.9,2.8,6,4.2C19.9,19.4,20.5,21.1,20.5,23.2z"/>
	<path id="XMLID_7_" class="st0" d="M46.7,10.3c0,3.4-1.1,6-3.2,7.7c-2.1,1.8-5.1,2.7-9,2.7h-2.9v11.2H25V0.5h10
		c3.8,0,6.7,0.8,8.7,2.5C45.7,4.6,46.7,7,46.7,10.3z M31.7,15.3h2.2c2,0,3.6-0.4,4.6-1.2c1-0.8,1.5-2,1.5-3.5c0-1.6-0.4-2.7-1.3-3.5
		c-0.9-0.7-2.2-1.1-4-1.1h-3V15.3z"/>
	<path id="XMLID_4_" class="st0" d="M80,16.1c0,5.2-1.3,9.2-3.9,12c-2.6,2.8-6.3,4.2-11.1,4.2s-8.5-1.4-11.1-4.2
		c-2.6-2.8-3.9-6.8-3.9-12c0-5.2,1.3-9.2,3.9-12C56.6,1.4,60.3,0,65.1,0c4.8,0,8.5,1.4,11.1,4.2C78.8,6.9,80,10.9,80,16.1z
		 M57.1,16.1c0,3.5,0.7,6.1,2,7.9c1.3,1.8,3.3,2.7,6,2.7c5.3,0,8-3.5,8-10.6c0-7.1-2.6-10.6-7.9-10.6c-2.6,0-4.6,0.9-6,2.7
		C57.8,10,57.1,12.6,57.1,16.1z"/>
	<path id="XMLID_2_" class="st0" d="M96.2,31.9h-6.7V6h-8.5V0.5h23.7V6h-8.5V31.9z"/>
</g>
</svg>
