<!-- Generator: Adobe Illustrator 21.1.0, SVG Export Plug-In  -->
<svg version="1.1"
	 xmlns="http://www.w3.org/2000/svg" xmlns:xlink="http://www.w3.org/1999/xlink" xmlns:a="http://ns.adobe.com/AdobeSVGViewerExtensions/3.0/"
	 x="0px" y="0px" width="65.8px" height="71.2px" viewBox="0 0 65.8 71.2" style="enable-background:new 0 0 65.8 71.2;"
	 xml:space="preserve">
<style type="text/css">
	.st0{fill:#FFC300;}
</style>
<defs>
</defs>
<g>
	<path id="XMLID_2_" class="st0" d="M36.6,47.8c-2.7-5.6-4.6-11.5-1.9-18.6c2.4-6.2,8.1-10.6,14.7-11.7c0.8-0.1,1.7-0.2,2.4-0.2
		c0-0.1,0.1-0.1,0.3,0c4.4-0.1,8.5,1.4,11.8,3.9c2.3-1,2.6-3.7,0.4-6.7C57.8,5.7,47.4,0,35.6,0C15.9,0,0,15.9,0,35.6
		c0,19.7,15.9,35.6,35.6,35.6c5.2,0,9.7-2.1,13.6-5.4C44.2,60.4,39.9,54.5,36.6,47.8z"/>
	<path id="XMLID_1_" class="st0" d="M44.3,36.3c-0.1,4.3,3.4,8.3,8.5,8.1c3.8-0.1,7.6-3.5,7.6-8.1c0-4.2-3.7-8-8.1-8
		C48,28.4,44.3,32,44.3,36.3z"/>
</g>
</svg>
