<!-- Generator: Adobe Illustrator 21.1.0, SVG Export Plug-In  -->
<svg version="1.1"
	 xmlns="http://www.w3.org/2000/svg" xmlns:xlink="http://www.w3.org/1999/xlink" xmlns:a="http://ns.adobe.com/AdobeSVGViewerExtensions/3.0/"
	 x="0px" y="0px" width="28.7px" height="38px" viewBox="0 0 28.7 38" style="enable-background:new 0 0 28.7 38;"
	 xml:space="preserve">
<style type="text/css">
	.st0{fill:#D6D9DE;}
</style>
<defs>
</defs>
<g id="UEps6y_1_">
	<g id="XMLID_1_">
		<g id="XMLID_2_">
			<path class="st0" d="M14.3,38c-0.9,0-1.4-0.5-1.9-1.1C7.9,32,4.6,27.6,2.3,22.8C1.2,20.5,0,17.7,0,14.4c0-6.5,4.9-12.6,11.2-14
				c0.9-0.2,2-0.4,3-0.3c0.1,0,0.1,0,0.2,0c6.9,0,12.8,5,14.1,11.9c0.4,2.3,0.2,4.8-0.8,7.5c-2.5,7.1-7.2,12.8-11.5,17.5
				C15.8,37.4,15.2,38,14.3,38C14.4,38,14.4,38,14.3,38z M13.8,3c-0.6,0-1.3,0.1-2,0.3C6.9,4.4,3,9.3,3,14.4c0,2.7,1,5.1,2,7.2
				c2.1,4.3,5.1,8.5,9.3,13c4.2-4.5,8.3-9.6,10.6-16.1c0.8-2.3,1-4.2,0.7-6c-1-5.7-5.7-9.5-11.3-9.4l-0.1,0l-0.1,0
				C14,3,13.9,3,13.8,3z M14.5,21.4c-1.9,0-3.7-0.7-5-2c-1.3-1.3-2.1-3.2-2-5c0-3.8,3.1-6.9,6.9-6.9c0,0,0,0,0,0c3.8,0,7,3.2,7,6.9
				c0,3.7-2.9,6.9-6.6,7C14.7,21.4,14.6,21.4,14.5,21.4z M14.3,10.5c-2.1,0-3.9,1.8-3.9,3.9l0,0c0,1.1,0.4,2.1,1.1,2.8
				c0.8,0.8,1.9,1.2,3.1,1.1c1.8-0.1,3.7-1.7,3.7-4C18.3,12.3,16.5,10.5,14.3,10.5C14.4,10.5,14.4,10.5,14.3,10.5z"/>
		</g>
	</g>
</g>
</svg>
