<!-- Generator: Adobe Illustrator 21.1.0, SVG Export Plug-In  -->
<svg version="1.1"
	 xmlns="http://www.w3.org/2000/svg" xmlns:xlink="http://www.w3.org/1999/xlink" xmlns:a="http://ns.adobe.com/AdobeSVGViewerExtensions/3.0/"
	 x="0px" y="0px" width="14.6px" height="19px" viewBox="0 0 14.6 19" style="enable-background:new 0 0 14.6 19;"
	 xml:space="preserve">
<style type="text/css">
	.st0{fill:#D6D9DE;}
</style>
<defs>
</defs>
<path id="XMLID_1_" class="st0" d="M14.6,7.4c0.1,1.2-0.3,2.3-0.9,3.4c-1.5,3.1-3.8,5.7-6.2,8.1c-0.2,0.2-0.3,0.2-0.5,0
	c-2.7-2.7-5.2-5.5-6.6-9.1c-1.6-4.4,1.3-9.1,6-9.7C11-0.5,14.7,3.2,14.6,7.4z M7.3,5C5.9,5,4.9,6.1,4.8,7.5C4.8,8.8,6,10,7.3,10
	c1.4,0,2.5-1.1,2.5-2.5C9.8,6.1,8.7,5,7.3,5z"/>
</svg>
