<?xml version="1.0" encoding="utf-8"?>
<!-- Generator: Adobe Illustrator 19.0.0, SVG Export Plug-In . SVG Version: 6.00 Build 0)  -->
<svg version="1.1" id="Layer_1" xmlns="http://www.w3.org/2000/svg" xmlns:xlink="http://www.w3.org/1999/xlink" x="0px" y="0px"
	 viewBox="-405 61.2 29.2 20.5" style="enable-background:new -405 61.2 29.2 20.5;" xml:space="preserve">
<style type="text/css">
	.st0{fill:#D6D9DE;}
</style>
<g id="XMLID_40_">
	<path id="XMLID_3164_" class="st0" d="M-393.5,68.6c-1.1-2.1-0.4-3.2,0.3-4.2c0.5-0.7,0.9-1.3,0.1-2.5l0.9-0.6
		c1.2,1.9,0.6,2.8-0.2,3.8c-0.5,0.7-1.1,1.5-0.3,3L-393.5,68.6L-393.5,68.6z"/>
	<path id="XMLID_46_" class="st0" d="M-386.1,70.6c2.3-2,10.3-5.3,10.3-5.3l-2.4-3.3c-7.1,2-10.6,6.6-11.9,8.6H-405v3.1
		c2.2,0.1,2.7,1.3,3,1.8c1,2,2,4.2,4,4.6v1.5h14v-1.5c2-0.4,3-2.6,4-4.6c0.6-1.7,3-1.8,3-1.8v-3.1h-0.3L-386.1,70.6z M-384.9,66.7
		c1.8-1.4,3.8-2.6,6.3-3.4l1.1,1.6c-2.2,0.8-4.2,1.8-5.9,2.7c-1.7,1-3.1,2-4.4,3h-1C-387.5,68.5-386.3,67.9-384.9,66.7z M-378,72.4
		c0,0-2.2,0.4-2.9,2.5c-0.9,1.8-1.9,3.9-3.4,3.8h-0.7v1h-11v-1c-3,0.2-3.3-2-4.2-3.8c-1.1-2.3-2.8-2.5-2.8-2.5v-0.7h25V72.4z"/>
	<path id="XMLID_2720_" class="st0" d="M-399.6,68.6c-1.1-2.2-0.4-3.2,0.3-4.2l0,0c0.5-0.7,0.9-1.3,0.1-2.5l0.9-0.6
		c1.2,1.9,0.6,2.8-0.2,3.8l0,0c-0.5,0.7-1.1,1.5-0.3,3L-399.6,68.6L-399.6,68.6z"/>
	<path id="XMLID_1684_" class="st0" d="M-396.5,68.6l1-0.5c-0.8-1.5-0.3-2.3,0.3-3l0,0c0.7-1,1.4-2,0.2-3.8l-0.9,0.6
		c0.8,1.2,0.4,1.9-0.1,2.5l0,0C-396.9,65.4-397.7,66.5-396.5,68.6z"/>
</g>
</svg>
