<!-- Generator: Adobe Illustrator 21.1.0, SVG Export Plug-In  -->
<svg version="1.1"
	 xmlns="http://www.w3.org/2000/svg" xmlns:xlink="http://www.w3.org/1999/xlink" xmlns:a="http://ns.adobe.com/AdobeSVGViewerExtensions/3.0/"
	 x="0px" y="0px" width="18.3px" height="25px" viewBox="0 0 18.3 25" style="enable-background:new 0 0 18.3 25;"
	 xml:space="preserve">
<style type="text/css">
	.st0{fill:#D6D9DE;}
</style>
<defs>
</defs>
<g id="XMLID_1_">
	<g id="XMLID_2_">
		<path id="XMLID_3_" class="st0" d="M17.5,0h-2.9c-1.5,0-2.7,0.9-3.2,2.3L11,4.1H1.1c-0.3,0-0.6,0.1-0.8,0.4C0.1,4.7,0,5,0,5.3
			l0.9,16C1,23.4,2.7,25,4.8,25h5.7c2.1,0,3.8-1.6,3.9-3.7l0.9-16c0-0.3-0.1-0.6-0.3-0.8c-0.2-0.2-0.5-0.4-0.8-0.4h-1.6l0.4-1.3
			c0.2-0.8,0.9-1.3,1.7-1.3h2.9c0.4,0,0.7-0.3,0.7-0.7C18.3,0.3,17.9,0,17.5,0z M1.5,5.6h9l-1.6,5.2c-1.1-0.2-2.2-0.2-3.2,0.1
			c-1,0.3-2,0.3-3,0l-0.9-0.3L1.5,5.6z M12.8,21.2c-0.1,1.3-1.1,2.3-2.4,2.3H4.8c-1.3,0-2.3-1-2.4-2.3l-0.5-9.1l0.4,0.1
			c1.3,0.4,2.6,0.4,3.9,0c0.8-0.2,1.6-0.3,2.4-0.1L6,20.6c-0.1,0.4,0.1,0.8,0.5,0.9c0.1,0,0.1,0,0.2,0c0.3,0,0.6-0.2,0.7-0.5
			l2.6-8.5c0.3,0.1,0.7,0.1,1,0.1c0.7,0,1.4-0.1,2-0.3l0.4-0.1L12.8,21.2z M13.7,5.6l-0.3,5l-0.9,0.3c-0.7,0.2-1.4,0.3-2.1,0.2
			L12,5.6L13.7,5.6L13.7,5.6z"/>
	</g>
</g>
</svg>
