<!-- Generator: Adobe Illustrator 21.1.0, SVG Export Plug-In  -->
<svg version="1.1"
	 xmlns="http://www.w3.org/2000/svg" xmlns:xlink="http://www.w3.org/1999/xlink" xmlns:a="http://ns.adobe.com/AdobeSVGViewerExtensions/3.0/"
	 x="0px" y="0px" width="23.1px" height="25px" viewBox="0 0 23.1 25" style="enable-background:new 0 0 23.1 25;"
	 xml:space="preserve">
<style type="text/css">
	.st0{fill:#D6D9DE;}
</style>
<defs>
</defs>
<g id="XMLID_1_">
	<path id="XMLID_3_" class="st0" d="M12.8,16.8c-1-2-1.6-4.1-0.7-6.5c0.9-2.2,2.9-3.7,5.2-4.1c0.3-0.1,0.6-0.1,0.8-0.1
		c0,0,0-0.1,0.1,0c1.5,0,3,0.5,4.1,1.4c0.8-0.3,0.9-1.3,0.1-2.4C20.3,2,16.6,0,12.5,0C5.6,0,0,5.6,0,12.5C0,19.4,5.6,25,12.5,25
		c1.8,0,3.4-0.7,4.8-1.9C15.5,21.2,14,19.1,12.8,16.8z"/>
	<path id="XMLID_2_" class="st0" d="M15.6,12.8c0,1.5,1.2,2.9,3,2.9c1.3,0,2.7-1.2,2.7-2.9c0-1.5-1.3-2.8-2.8-2.8
		C16.8,10,15.6,11.2,15.6,12.8z"/>
</g>
</svg>
