<!-- Generator: Adobe Illustrator 21.1.0, SVG Export Plug-In  -->
<svg version="1.1"
	 xmlns="http://www.w3.org/2000/svg" xmlns:xlink="http://www.w3.org/1999/xlink" xmlns:a="http://ns.adobe.com/AdobeSVGViewerExtensions/3.0/"
	 x="0px" y="0px" width="24.9px" height="25px" viewBox="0 0 24.9 25" style="enable-background:new 0 0 24.9 25;"
	 xml:space="preserve">
<style type="text/css">
	.st0{fill:#D6D9DE;}
</style>
<defs>
</defs>
<g id="coffee_2_">
	<path id="XMLID_3_" class="st0" d="M5.9,25c-0.1,0-0.3-0.1-0.5-0.1C2.1,23.4,0,20.3,0,17V9.4c0-0.5,0.6-1.1,1.1-1.1h17.8
		c0.4,0,0.9,0.6,0.9,1.1v1.4h0.4c0.1,0,0.8-0.2,1.4-0.2c1.9,0,3.5,1.6,3.5,3.5c0,3-3.6,5.2-5.6,5.5l-0.1,0l0,0.1
		c-0.8,2.2-2.5,4-4.8,5.1C14.2,25,14.1,25,14,25H5.9z M1.6,17c0,2.6,1.9,5.3,4.4,6.4l7.7,0c2.5-1,4.3-3.7,4.3-6.4V9.9H1.6V17z
		 M21.5,12.4c-1,0-1.8,0.8-1.8,1.8v3.7l0.3-0.2c1.5-0.8,3.2-2.1,3.2-3.5C23.3,13.2,22.5,12.4,21.5,12.4z"/>
	<path id="XMLID_2_" class="st0" d="M12.6,4.3c0-0.2-0.1-0.4-0.2-0.6c-0.2-0.3-0.3-0.6-0.5-0.8l-0.1-0.1c-0.1-0.2-0.2-0.3-0.3-0.5
		c-0.1-0.1-0.1-0.2-0.1-0.4c0-0.4,0.1-1,0.2-1.5c0-0.2,0-0.3-0.2-0.4C11.3,0,11.1,0,11,0.1c-0.6,0.4-0.9,1-1.1,1.7
		c-0.1,0.4,0,1,0.2,1.3c0.2,0.3,0.4,0.6,0.5,0.9c0.1,0.2,0.3,0.4,0.4,0.6C11,4.6,11,4.6,11,4.7c0,0,0,0,0,0.1l0,0.1
		c0,0.4-0.1,0.9-0.2,1.3l0,0.1c0,0.2,0,0.3,0.2,0.4c0.1,0,0.1,0.1,0.2,0.1c0.1,0,0.2,0,0.2-0.1c0.6-0.4,1-1,1.1-1.7l0-0.3
		C12.6,4.6,12.6,4.4,12.6,4.3z"/>
	<path id="XMLID_1_" class="st0" d="M9.4,4.9C9.3,4.7,9.2,4.6,9.1,4.4C9,4.4,9,4.3,9,4.3c0,0-0.1-0.1-0.1-0.1l0,0c0,0,0,0,0-0.1
		c0-0.1,0-0.2,0-0.4l0-0.3c0-0.1-0.1-0.2-0.2-0.3C8.6,3,8.5,3,8.4,3L8.3,3C7.8,3.2,7.5,3.6,7.4,4l0,0.2c0,0,0,0,0,0.1
		c0,0.1,0,0.1,0,0.2c0,0.2,0.1,0.3,0.1,0.4c0.1,0.2,0.2,0.4,0.3,0.5l0.2,0.3l0,0.1c0,0,0,0.1,0,0.2l0,0.5c0,0.1,0.1,0.2,0.2,0.3
		c0.1,0,0.1,0.1,0.2,0.1l0.1,0c0.2-0.1,0.4-0.2,0.6-0.4c0.1-0.1,0.3-0.3,0.4-0.7c0,0,0-0.1,0-0.2c0-0.1,0-0.2,0-0.2
		C9.5,5.2,9.4,5,9.4,4.9z"/>
</g>
</svg>
