<!-- Generator: Adobe Illustrator 21.1.0, SVG Export Plug-In  -->
<svg version="1.1"
	 xmlns="http://www.w3.org/2000/svg" xmlns:xlink="http://www.w3.org/1999/xlink" xmlns:a="http://ns.adobe.com/AdobeSVGViewerExtensions/3.0/"
	 x="0px" y="0px" width="26.7px" height="25px" viewBox="0 0 26.7 25" style="enable-background:new 0 0 26.7 25;"
	 xml:space="preserve">
<style type="text/css">
	.st0{fill:#D6D9DE;}
</style>
<defs>
</defs>
<g id="XMLID_1_">
	<path id="XMLID_2_" class="st0" d="M9.1,25c-0.4,0-0.6-0.3-0.6-0.6v-1.9l-0.1,0C3.3,20.5,0,15.9,0,10.8c0-0.4,0.3-0.6,0.6-0.6h1.9
		L2.4,9.9C1.3,7.9,1.6,5.5,3.1,4c0.1-0.1,0.3-0.2,0.5-0.2h0.1l0.1,0C4.6,1.5,6.8,0,9.1,0c0.4,0,0.6,0.3,0.6,0.6V5l0.3-0.3
		c0.8-0.7,1.8-1.2,2.9-1.3c1.1-1.1,2.4-1.7,3.8-1.7c1.4,0,2.7,0.6,3.6,1.6C23,3.6,25,5.8,25,8.3c0,0.5-0.1,1.1-0.3,1.6l-0.1,0.3h1.4
		c0.4,0,0.6,0.3,0.6,0.6c0,5.1-3.3,9.7-8.3,11.6l-0.1,0l-0.1,0.1v1.8c0,0.4-0.3,0.6-0.6,0.6H9.1z M1.3,11.7c0.4,4.4,3.5,8.2,8,9.7
		c0.3,0.1,0.4,0.3,0.4,0.6v1.7h7.2V22c0-0.3,0.2-0.5,0.4-0.6c4.5-1.5,7.6-5.3,8-9.7l0-0.2H1.3L1.3,11.7z M20.1,7.6
		c0.2,0,0.4,0.1,0.5,0.3c0.2,0.3,0.2,0.7-0.1,0.9l-1.8,1.4H23c0.5-0.7,0.7-1.3,0.7-1.9c0-2-1.6-3.6-3.6-3.6c-0.2,0-0.4-0.1-0.5-0.3
		C19,3.6,17.9,3,16.7,3s-2.2,0.5-2.9,1.4c-0.1,0.2-0.3,0.3-0.5,0.3c-2,0-3.6,1.6-3.6,3.6c0,0.6,0.2,1.2,0.5,1.8l3.9,0.1h0.6L13,8.8
		c-0.1-0.1-0.2-0.3-0.3-0.4c0-0.2,0-0.3,0.1-0.5c0.1-0.2,0.3-0.3,0.5-0.3c0.1,0,0.3,0,0.4,0.1l2.4,1.8V7.4c0-0.4,0.3-0.6,0.6-0.6
		c0.4,0,0.6,0.3,0.6,0.6v2.1l2.4-1.8C19.8,7.7,20,7.6,20.1,7.6z M3.5,5.6C2.7,7,2.9,8.8,4,10c0,0,0.1,0.1,0.1,0.1l0.1,0.1l4.1,0
		L3.6,5.4L3.5,5.6z M8.2,1.4C6.6,1.7,5.2,3,4.8,4.6l3.6,3.8V1.3L8.2,1.4z"/>
</g>
</svg>
