<!-- Generator: Adobe Illustrator 21.1.0, SVG Export Plug-In  -->
<svg version="1.1"
	 xmlns="http://www.w3.org/2000/svg" xmlns:xlink="http://www.w3.org/1999/xlink" xmlns:a="http://ns.adobe.com/AdobeSVGViewerExtensions/3.0/"
	 x="0px" y="0px" width="29px" height="18.9px" viewBox="0 0 29 18.9" style="enable-background:new 0 0 29 18.9;"
	 xml:space="preserve">
<style type="text/css">
	.st0{fill:#D6D9DE;}
</style>
<defs>
</defs>
<g id="XMLID_1_">
	<g id="XMLID_5_">
		<path id="XMLID_6_" class="st0" d="M10.2,18.9c-1.4,0-2-0.8-2-0.8c-0.6-0.5-0.9-1.3-0.9-2.1v-1c0-0.5-0.2-0.9-0.5-1.3l-1.2-1.2
			c-1.1-1.1-1.4-2.7-0.9-4.1L2.7,6.5C2.5,6.6,2.2,6.7,1.9,6.7c-0.5,0-1-0.2-1.4-0.6C0.2,5.8,0,5.3,0,4.8s0.2-1,0.6-1.4
			c0.1-0.1,0.1-0.1,0.2-0.2c0.1-0.1,0.1-0.1,0.2-0.1C1.1,3.1,1.2,3,1.3,3c0.1-0.3,0.3-0.5,0.5-0.8c0.4-0.4,0.8-0.6,1.4-0.6
			c0.5,0,1,0.2,1.4,0.6c0.2,0.2,0.3,0.4,0.4,0.7C5,2.5,5.2,2.1,5.5,1.8c0.1-0.1,0.1-0.1,0.2-0.2c0.1-0.1,0.2-0.1,0.2-0.1
			C6,1.4,6.1,1.4,6.2,1.3C6.3,1,6.5,0.8,6.7,0.6C7.1,0.2,7.5,0,8.1,0c0.5,0,1,0.2,1.4,0.6C10,1.1,10.1,2,9.8,2.7l1.8,1.8
			c0.5-0.2,1-0.3,1.5-0.3c1,0,2,0.4,2.7,1.1l1.5,1.5c0.9-0.3,1.9-0.5,2.9-0.5c3.1,0,6,1.7,7.6,4.5c0.7,1.3,1.1,2.8,1.1,4.3V18v0
			c0,0,0,0.4-0.2,0.7c-0.2,0.2-0.4,0.3-0.7,0.3H10.2z M8.2,7C7.9,7,7.6,7.1,7.3,7.2C7.1,7.3,6.8,7.4,6.6,7.5
			C6.5,7.6,6.4,7.7,6.3,7.8C6.2,8,6,8.1,5.9,8.3C5.8,8.5,5.7,8.7,5.6,9C5.5,9.2,5.5,9.5,5.5,9.8c0,0.7,0.3,1.4,0.8,1.9l1.2,1.2
			c0.6,0.6,0.9,1.3,0.9,2.1v1c0,1,0.8,1.8,1.8,1.8h17.7v-2.7c0-1.3-0.3-2.6-1-3.7C25.5,9,23,7.5,20.3,7.5c-0.8,0-1.5,0.1-2.3,0.4
			c-0.1,0-2,0.9-3.3,1.4c-0.1,0-0.2,0-0.2,0c-0.1,0-0.1,0-0.2,0C14.1,9.3,14,9.2,13.9,9c-0.1-0.3,0-0.6,0.3-0.8l2-0.9l-1.2-1.2
			c-0.5-0.5-1.2-0.8-1.9-0.8c-0.3,0-0.6,0.1-0.9,0.2c-0.2,0.1-0.4,0.2-0.6,0.3c-0.1,0.1-0.2,0.2-0.3,0.3c-0.1,0.1-0.3,0.3-0.4,0.5
			c0,0-0.1,0.1-0.1,0.1C10.8,6.9,10.9,6.9,11,7l2.4,2.4c0.3,0.3,0.5,0.7,0.7,1.1c0.4,1.1,0.1,2.3-0.7,3.1c0,0-0.1,0.1-0.2,0.1
			c-0.1,0-0.1,0-0.2,0c-0.1,0-0.3,0-0.4-0.1c-0.3-0.3-0.3-0.6-0.1-0.8c0.1-0.1,0.2-0.2,0.3-0.3c0.4-0.7,0.3-1.6-0.3-2.2l-2.4-2.4
			C10,7.7,9.9,7.6,9.8,7.5C9.7,7.4,9.6,7.4,9.5,7.3C9.1,7.1,8.7,7,8.2,7z M2.8,5.2c0.2,0,0.3,0.1,0.4,0.2l2,2C5.3,7.2,5.4,7.1,5.5,7
			c0.1-0.1,0.1-0.1,0.2-0.2l-2-2c-0.2-0.2-0.2-0.6,0-0.8C4,3.8,4,3.3,3.7,3C3.5,2.9,3.3,2.8,3.1,2.8C2.9,2.8,2.8,2.9,2.6,3
			c0.2,0.1,0.5,0.2,0.7,0.4c0.2,0.2,0.2,0.6,0,0.8C3.2,4.3,3,4.4,2.9,4.4c-0.1,0-0.2-0.1-0.3-0.1C2.2,4.1,2,4,1.8,4
			C1.5,4,1.4,4.1,1.4,4.2C1.2,4.4,1.1,4.6,1.1,4.8c0,0.2,0.1,0.4,0.2,0.5c0.1,0.1,0.3,0.2,0.5,0.2c0.2,0,0.4-0.1,0.5-0.2
			C2.5,5.3,2.7,5.2,2.8,5.2z M6.7,6.2c0.5-0.2,1-0.3,1.5-0.3c0.1,0,0.3,0,0.4,0l-1-1C7.4,5,7.1,5.1,6.8,5.1c-0.5,0-1-0.2-1.4-0.6
			C5.3,4.3,5.1,4.1,5,3.8C5,4,5,4.2,4.9,4.4L6.7,6.2z M7.7,3.6c0.2,0,0.3,0.1,0.4,0.2l2,2c0.1-0.1,0.2-0.2,0.3-0.4
			c0.1-0.1,0.1-0.1,0.2-0.2l-2-2C8.4,3,8.4,2.6,8.6,2.4c0.3-0.3,0.3-0.8,0-1.1C8.5,1.2,8.3,1.1,8.1,1.1c-0.2,0-0.4,0.1-0.5,0.2
			C7.8,1.5,8,1.6,8.2,1.8C8.3,1.9,8.4,2,8.4,2.2c0,0.2-0.1,0.3-0.2,0.4C8.1,2.7,7.9,2.8,7.8,2.8c-0.2,0-0.3-0.1-0.4-0.2
			C7.2,2.5,7,2.4,6.8,2.4c-0.2,0-0.3,0-0.4,0.1c0,0-0.1,0.1-0.1,0.1C6.1,2.7,6.1,2.9,6.1,3.1s0.1,0.4,0.2,0.5
			c0.1,0.1,0.3,0.2,0.5,0.2c0.2,0,0.4-0.1,0.5-0.2C7.4,3.6,7.6,3.6,7.7,3.6z"/>
	</g>
	<path id="XMLID_4_" class="st0" d="M19.3,1.3l-0.3-1l-0.9,0.2l0.3,1c0.1,0.3,0,0.7-0.1,0.8C18,2.7,17.9,3.4,18.1,4l0.3,1l0.9-0.2
		l-0.3-1c-0.1-0.3,0-0.7,0.1-0.8C19.3,2.6,19.4,1.9,19.3,1.3"/>
	<path id="XMLID_3_" class="st0" d="M21.1,1.3l-0.3-1L20,0.5l0.3,1c0.1,0.3,0,0.7-0.1,0.8C19.9,2.7,19.8,3.4,20,4l0.3,1l0.9-0.2
		l-0.3-1c-0.1-0.3,0-0.7,0.1-0.8C21.2,2.6,21.3,1.9,21.1,1.3"/>
	<path id="XMLID_2_" class="st0" d="M23,1.3l-0.3-1l-0.9,0.2l0.3,1c0.1,0.3,0,0.7-0.1,0.8c-0.3,0.4-0.4,1.1-0.2,1.6l0.3,1L23,4.7
		l-0.3-1c-0.1-0.3,0-0.7,0.1-0.8C23,2.6,23.2,1.9,23,1.3"/>
</g>
</svg>
