<!-- Generator: Adobe Illustrator 21.1.0, SVG Export Plug-In  -->
<svg version="1.1"
	 xmlns="http://www.w3.org/2000/svg" xmlns:xlink="http://www.w3.org/1999/xlink" xmlns:a="http://ns.adobe.com/AdobeSVGViewerExtensions/3.0/"
	 x="0px" y="0px" width="13.9px" height="25px" viewBox="0 0 13.9 25" style="enable-background:new 0 0 13.9 25;"
	 xml:space="preserve">
<style type="text/css">
	.st0{fill-rule:evenodd;clip-rule:evenodd;fill:#D6D9DE;}
</style>
<defs>
</defs>
<path id="XMLID_1_" class="st0" d="M7.1,1.4H6.7H2c-0.3,1.2-0.8,4.3-0.5,7c1.7-1.3,3.5-0.7,5.3-0.2c1.8,0.6,3.7,1.2,5.7-0.7
	c0.1-2.5-0.4-5-0.6-6.1H7.1L7.1,1.4z M6.9,25H6H1.4v-1.4L6,23v-7l-0.2-0.1C5.1,15.7,4,15.3,3,14.5c-0.8-0.7-1.6-1.6-2.2-2.8
	C-1,7.7,0.8,0.6,0.8,0.5L0.9,0h0.6h5.3h0.4h5.3H13l0.1,0.5c0,0,1.8,7.2-0.1,11.2c-0.6,1.2-1.4,2.1-2.2,2.8c-1,0.8-2,1.2-2.8,1.4
	l-0.3,0.1V23l4.8,0.6V25H7.7H7.1H6.9L6.9,25z M1.7,9.7c1.5-1.4,3.1-0.9,4.7-0.4c1.9,0.6,3.8,1.2,5.9-0.2c-0.1,0.8-0.3,1.5-0.6,2.1
	c-0.5,1-1.1,1.7-1.8,2.3c-1,0.8-2.1,1.2-2.8,1.3l-0.2,0h0l0,0l-0.2,0c-0.7-0.2-1.8-0.5-2.8-1.3c-0.7-0.5-1.3-1.3-1.8-2.3
	C1.9,10.7,1.8,10.2,1.7,9.7z"/>
</svg>
