<!-- Generator: Adobe Illustrator 21.1.0, SVG Export Plug-In  -->
<svg version="1.1"
	 xmlns="http://www.w3.org/2000/svg" xmlns:xlink="http://www.w3.org/1999/xlink" xmlns:a="http://ns.adobe.com/AdobeSVGViewerExtensions/3.0/"
	 x="0px" y="0px" width="27.9px" height="25px" viewBox="0 0 27.9 25" style="enable-background:new 0 0 27.9 25;"
	 xml:space="preserve">
<style type="text/css">
	.st0{fill:#D6D9DE;}
</style>
<defs>
</defs>
<g id="XMLID_1_">
	<g id="XMLID_4_">
		<path id="XMLID_5_" class="st0" d="M22.7,15.3c-1.6,0-3.2-0.8-4.2-2.1l-0.2-0.3l-0.2,0.3c-1,1.3-2.5,2.1-4.2,2.1s-3.2-0.8-4.2-2.1
			l-0.2-0.3l-0.2,0.3c-1,1.3-2.5,2.1-4.2,2.1C2.3,15.3,0,13,0,10.1C0,4.5,6.3,0,13.9,0c7.7,0,13.9,4.5,13.9,10.1
			C27.9,13,25.6,15.3,22.7,15.3z M18.3,9.4c0.4,0,0.7,0.3,0.7,0.7c0,2,1.6,3.7,3.7,3.7s3.7-1.6,3.7-3.7c0-4.8-5.6-8.7-12.5-8.7
			c-6.9,0-12.5,3.9-12.5,8.7c0,2,1.6,3.7,3.7,3.7s3.7-1.6,3.7-3.7c0-0.4,0.3-0.7,0.7-0.7c0.4,0,0.7,0.3,0.7,0.7c0,2,1.6,3.7,3.7,3.7
			c2,0,3.7-1.6,3.7-3.7C17.6,9.7,17.9,9.4,18.3,9.4z"/>
	</g>
	<g id="XMLID_2_">
		<path id="XMLID_3_" class="st0" d="M6.3,25c-0.3,0-0.7-0.2-0.7-0.6l-1.4-6.8c-0.1-0.4,0.2-0.8,0.6-0.9c0,0,0.1,0,0.1,0
			c0.3,0,0.7,0.2,0.7,0.6l1.3,6.2h2.3l-0.8-6c0-0.2,0-0.4,0.1-0.5c0.1-0.2,0.3-0.3,0.5-0.3c0,0,0,0,0,0c0.5,0,0.8,0.3,0.8,0.6
			l0.8,6.2h2.4v-5.9c0-0.4,0.3-0.7,0.7-0.7c0.4,0,0.7,0.3,0.7,0.7v5.9H17l0.8-6.2c0-0.4,0.4-0.6,0.7-0.6c0.5,0.1,0.8,0.4,0.7,0.8
			l-0.8,6H21l1.3-6.2c0.1-0.3,0.4-0.6,0.7-0.6c0,0,0.1,0,0.1,0c0.2,0,0.4,0.2,0.5,0.3c0.1,0.2,0.1,0.4,0.1,0.6l-1.4,6.8
			c-0.1,0.3-0.4,0.6-0.7,0.6H6.3z"/>
	</g>
</g>
</svg>
