<!-- Generator: Adobe Illustrator 21.1.0, SVG Export Plug-In  -->
<svg version="1.1"
	 xmlns="http://www.w3.org/2000/svg" xmlns:xlink="http://www.w3.org/1999/xlink" xmlns:a="http://ns.adobe.com/AdobeSVGViewerExtensions/3.0/"
	 x="0px" y="0px" width="15.5px" height="15px" viewBox="0 0 15.5 15" style="enable-background:new 0 0 15.5 15;"
	 xml:space="preserve">
<style type="text/css">
	.st0{fill:#FFFFFF;}
</style>
<defs>
</defs>
<g id="_x36_hjkOI.tif_1_">
	<g id="XMLID_1_">
		<path id="XMLID_4_" class="st0" d="M11,2.2c-1.3,0-2.5,0-3.8,0c-0.2,0-0.4,0-0.5,0.3C6.4,3.1,5.9,3.5,5.2,3.5
			c-0.7,0-1.2-0.3-1.6-0.9C3.5,2.3,3.4,2.2,3.1,2.2c-0.8,0-1.7,0-2.5,0C0.4,2.2,0.2,2.2,0,1.9C0,1.7,0,1.6,0.1,1.4
			c0.1-0.2,0.3-0.2,0.5-0.2c0.8,0,1.6,0,2.5,0c0.2,0,0.4,0,0.5-0.3c0.3-0.6,0.8-1,1.5-1c0.7,0,1.2,0.3,1.5,0.9
			C6.8,1.2,7,1.2,7.2,1.2c2.5,0,4.9,0,7.4,0c0.1,0,0.3,0,0.4,0c0.3,0,0.5,0.2,0.5,0.5c0,0.3-0.2,0.5-0.5,0.5c-0.3,0-0.6,0-0.9,0
			C13.1,2.2,12,2.2,11,2.2z"/>
		<path id="XMLID_3_" class="st0" d="M4.7,8C3.3,8,2,8,0.6,8C0.2,8,0,7.8,0,7.5C0,7.1,0.3,7,0.6,7c0.1,0,0.2,0,0.3,0
			C3.4,7,6,7,8.5,7C8.8,7,9,6.9,9.2,6.6C9.5,6,10,5.8,10.7,5.8c0.7,0,1.2,0.3,1.5,0.9C12.3,6.9,12.4,7,12.7,7c0.7,0,1.4,0,2.2,0
			c0.3,0,0.6,0.1,0.6,0.5c0,0.3-0.2,0.5-0.6,0.5c-0.8,0-1.5,0-2.3,0c-0.2,0-0.3,0-0.4,0.2c-0.3,0.6-0.8,1-1.5,1
			c-0.7,0-1.3-0.3-1.6-1C9,8.1,8.9,8,8.7,8C7.3,8,6,8,4.7,8z"/>
		<path id="XMLID_2_" class="st0" d="M9.4,13.8c-1.8,0-3.6,0-5.4,0c-0.3,0-0.4,0.1-0.5,0.3c-0.4,0.7-1.2,1.1-2,0.9
			c-0.8-0.2-1.3-0.9-1.3-1.7c0-0.8,0.5-1.5,1.3-1.7c0.8-0.2,1.6,0.1,1.9,0.8c0.2,0.3,0.3,0.4,0.6,0.4c3.5,0,7,0,10.5,0
			c0.1,0,0.2,0,0.3,0c0.3,0,0.5,0.2,0.5,0.5c0,0.3-0.2,0.5-0.5,0.5c-0.4,0-0.9,0-1.3,0C12.2,13.8,10.8,13.8,9.4,13.8z"/>
	</g>
</g>
</svg>
