<!-- Generator: Adobe Illustrator 21.1.0, SVG Export Plug-In  -->
<svg version="1.1"
	 xmlns="http://www.w3.org/2000/svg" xmlns:xlink="http://www.w3.org/1999/xlink" xmlns:a="http://ns.adobe.com/AdobeSVGViewerExtensions/3.0/"
	 x="0px" y="0px" width="34.8px" height="24px" viewBox="0 0 34.8 24" style="overflow:scroll;enable-background:new 0 0 34.8 24;"
	 xml:space="preserve">
<style type="text/css">
	.st0{fill:#BEC5CD;}
	.st1{fill:#E2E9F0;}
</style>
<defs>
</defs>
<g>
	<g>
		<path class="st0" d="M31.3,24H3.5C1.6,24,0,22.4,0,20.5v-17C0,1.6,1.6,0,3.5,0h27.8c1.9,0,3.5,1.6,3.5,3.5v17
			C34.8,22.4,33.3,24,31.3,24z M3.5,1C2.1,1,1,2.1,1,3.5v17C1,21.9,2.1,23,3.5,23h27.8c1.4,0,2.5-1.1,2.5-2.5v-17
			c0-1.4-1.1-2.5-2.5-2.5H3.5z"/>
	</g>
	<g>
		<polygon class="st0" points="17.6,17.7 0.8,1.2 1.5,0.5 17.6,16.3 33.7,0.5 34.4,1.2 		"/>
	</g>
	<g>
		<polygon class="st1" points="22.5,12.2 17.6,17 12.7,12.2 2.3,23.5 32.8,23.5 		"/>
		<path class="st0" d="M32.8,24H2.3c-0.2,0-0.4-0.1-0.5-0.3s0-0.4,0.1-0.5l10.3-11.3c0.1-0.1,0.2-0.2,0.4-0.2c0.1,0,0.3,0,0.4,0.1
			l4.6,4.5l4.6-4.5c0.1-0.1,0.2-0.1,0.4-0.1c0.1,0,0.3,0.1,0.4,0.2l10.3,11.3c0.1,0.1,0.2,0.4,0.1,0.5S33,24,32.8,24z M3.5,23h28.2
			l-9.2-10.1l-4.5,4.5c-0.2,0.2-0.5,0.2-0.7,0l-4.5-4.5L3.5,23z"/>
	</g>
</g>
</svg>
